<mxfile host="app.diagrams.net" agent="Mozilla/5.0 (Windows NT 10.0; Win64; x64) AppleWebKit/537.36 (KHTML, like Gecko) Chrome/131.0.0.0 Safari/537.36" version="24.8.6">
  <diagram name="Страница-1" id="IK3q39sNYjnyDV0kQuen">
    <mxGraphModel dx="2577" dy="928" grid="1" gridSize="10" guides="1" tooltips="1" connect="1" arrows="1" fold="1" page="1" pageScale="1" pageWidth="827" pageHeight="1169" math="0" shadow="0">
      <root>
        <mxCell id="0" />
        <mxCell id="1" parent="0" />
        <mxCell id="UVv64VayunSS3mwNl8jP-3" value="Users" style="html=1;whiteSpace=wrap;" parent="1" vertex="1">
          <mxGeometry x="-598" y="330" width="110" height="50" as="geometry" />
        </mxCell>
        <mxCell id="UVv64VayunSS3mwNl8jP-4" value="Payments" style="html=1;whiteSpace=wrap;" parent="1" vertex="1">
          <mxGeometry x="-326" y="800" width="110" height="50" as="geometry" />
        </mxCell>
        <mxCell id="UVv64VayunSS3mwNl8jP-5" value="OrderItems" style="html=1;whiteSpace=wrap;" parent="1" vertex="1">
          <mxGeometry x="313.5" y="310" width="110" height="50" as="geometry" />
        </mxCell>
        <mxCell id="UVv64VayunSS3mwNl8jP-6" value="Items" style="html=1;whiteSpace=wrap;" parent="1" vertex="1">
          <mxGeometry x="352.92" y="590" width="110" height="50" as="geometry" />
        </mxCell>
        <mxCell id="UVv64VayunSS3mwNl8jP-7" value="Customers" style="html=1;whiteSpace=wrap;" parent="1" vertex="1">
          <mxGeometry x="-140" y="330" width="110" height="50" as="geometry" />
        </mxCell>
        <mxCell id="UVv64VayunSS3mwNl8jP-8" value="Orders" style="html=1;whiteSpace=wrap;" parent="1" vertex="1">
          <mxGeometry x="-140" y="527.5" width="110" height="50" as="geometry" />
        </mxCell>
        <mxCell id="UVv64VayunSS3mwNl8jP-9" value="Category" style="html=1;whiteSpace=wrap;" parent="1" vertex="1">
          <mxGeometry x="505.0000000000001" y="880" width="110" height="50" as="geometry" />
        </mxCell>
        <mxCell id="UVv64VayunSS3mwNl8jP-10" value="Inventory" style="html=1;whiteSpace=wrap;" parent="1" vertex="1">
          <mxGeometry x="190" y="845" width="110" height="50" as="geometry" />
        </mxCell>
        <mxCell id="UVv64VayunSS3mwNl8jP-14" value="" style="aspect=fixed;shape=isoRectangle;textOpacity=0;labelBackgroundColor=none;fontColor=none;noLabel=1;fillColor=none;" parent="1" vertex="1">
          <mxGeometry x="-128" y="527.5" width="85.01" height="51" as="geometry" />
        </mxCell>
        <mxCell id="UVv64VayunSS3mwNl8jP-15" value="" style="aspect=fixed;shape=isoRectangle;textOpacity=0;labelBackgroundColor=none;fontColor=none;noLabel=1;fillColor=none;" parent="1" vertex="1">
          <mxGeometry x="325.99" y="309" width="85.01" height="51" as="geometry" />
        </mxCell>
        <mxCell id="UVv64VayunSS3mwNl8jP-16" value="" style="rounded=0;whiteSpace=wrap;html=1;fillColor=none;" parent="1" vertex="1">
          <mxGeometry x="-322" y="805" width="100" height="41" as="geometry" />
        </mxCell>
        <mxCell id="UVv64VayunSS3mwNl8jP-19" value="&lt;u&gt;UserID&lt;/u&gt;" style="ellipse;whiteSpace=wrap;html=1;" parent="1" vertex="1">
          <mxGeometry x="-460" y="340" width="75" height="50" as="geometry" />
        </mxCell>
        <mxCell id="UVv64VayunSS3mwNl8jP-20" value="Password" style="ellipse;whiteSpace=wrap;html=1;" parent="1" vertex="1">
          <mxGeometry x="-700" y="340" width="75" height="50" as="geometry" />
        </mxCell>
        <mxCell id="UVv64VayunSS3mwNl8jP-21" value="Email" style="ellipse;whiteSpace=wrap;html=1;" parent="1" vertex="1">
          <mxGeometry x="-673" y="270" width="75" height="50" as="geometry" />
        </mxCell>
        <mxCell id="UVv64VayunSS3mwNl8jP-22" value="Name" style="ellipse;whiteSpace=wrap;html=1;" parent="1" vertex="1">
          <mxGeometry x="-580.5" y="240" width="75" height="50" as="geometry" />
        </mxCell>
        <mxCell id="UVv64VayunSS3mwNl8jP-23" value="Role" style="ellipse;whiteSpace=wrap;html=1;gradientColor=none;strokeColor=default;dashed=1;dashPattern=8 8;" parent="1" vertex="1">
          <mxGeometry x="-480" y="270" width="75" height="50" as="geometry" />
        </mxCell>
        <mxCell id="UVv64VayunSS3mwNl8jP-25" value="Email" style="ellipse;whiteSpace=wrap;html=1;" parent="1" vertex="1">
          <mxGeometry x="-247" y="340" width="75" height="50" as="geometry" />
        </mxCell>
        <mxCell id="UVv64VayunSS3mwNl8jP-26" value="Name" style="ellipse;whiteSpace=wrap;html=1;" parent="1" vertex="1">
          <mxGeometry x="-215" y="273.33" width="75" height="50" as="geometry" />
        </mxCell>
        <mxCell id="UVv64VayunSS3mwNl8jP-27" value="LoyaltyCard" style="ellipse;whiteSpace=wrap;html=1;dashed=1;dashPattern=8 8;" parent="1" vertex="1">
          <mxGeometry x="2" y="340" width="75" height="50" as="geometry" />
        </mxCell>
        <mxCell id="UVv64VayunSS3mwNl8jP-28" value="Phone" style="ellipse;whiteSpace=wrap;html=1;" parent="1" vertex="1">
          <mxGeometry x="-124.5" y="240" width="75" height="50" as="geometry" />
        </mxCell>
        <mxCell id="UVv64VayunSS3mwNl8jP-29" value="&lt;u&gt;CustomerID&lt;/u&gt;" style="ellipse;whiteSpace=wrap;html=1;" parent="1" vertex="1">
          <mxGeometry x="-37" y="270" width="80" height="53.33" as="geometry" />
        </mxCell>
        <mxCell id="UVv64VayunSS3mwNl8jP-31" value="Price" style="ellipse;whiteSpace=wrap;html=1;" parent="1" vertex="1">
          <mxGeometry x="213.09000000000003" y="565" width="75" height="50" as="geometry" />
        </mxCell>
        <mxCell id="UVv64VayunSS3mwNl8jP-32" value="CategoryID" style="ellipse;whiteSpace=wrap;html=1;" parent="1" vertex="1">
          <mxGeometry x="291.17" y="530" width="75" height="50" as="geometry" />
        </mxCell>
        <mxCell id="UVv64VayunSS3mwNl8jP-33" value="Name" style="ellipse;whiteSpace=wrap;html=1;" parent="1" vertex="1">
          <mxGeometry x="258.50000000000006" y="615" width="75" height="50" as="geometry" />
        </mxCell>
        <mxCell id="UVv64VayunSS3mwNl8jP-34" value="Stock" style="ellipse;whiteSpace=wrap;html=1;dashed=1;dashPattern=8 8;" parent="1" vertex="1">
          <mxGeometry x="478.9200000000001" y="530" width="75" height="50" as="geometry" />
        </mxCell>
        <mxCell id="UVv64VayunSS3mwNl8jP-35" value="&lt;u&gt;ItemID&lt;/u&gt;" style="ellipse;whiteSpace=wrap;html=1;" parent="1" vertex="1">
          <mxGeometry x="498.9200000000001" y="600" width="75" height="50" as="geometry" />
        </mxCell>
        <mxCell id="UVv64VayunSS3mwNl8jP-36" value="CategoryName" style="ellipse;whiteSpace=wrap;html=1;" parent="1" vertex="1">
          <mxGeometry x="571.9200000000001" y="950" width="90" height="60" as="geometry" />
        </mxCell>
        <mxCell id="UVv64VayunSS3mwNl8jP-37" value="&lt;u&gt;CategoryID&lt;/u&gt;" style="ellipse;whiteSpace=wrap;html=1;" parent="1" vertex="1">
          <mxGeometry x="462.9200000000001" y="950" width="90" height="60" as="geometry" />
        </mxCell>
        <mxCell id="UVv64VayunSS3mwNl8jP-38" value="LastUpdated" style="ellipse;whiteSpace=wrap;html=1;" parent="1" vertex="1">
          <mxGeometry x="90" y="845" width="82.5" height="55" as="geometry" />
        </mxCell>
        <mxCell id="UVv64VayunSS3mwNl8jP-39" value="StockLevel" style="ellipse;whiteSpace=wrap;html=1;dashed=1;dashPattern=8 8;" parent="1" vertex="1">
          <mxGeometry x="160" y="920" width="75" height="50" as="geometry" />
        </mxCell>
        <mxCell id="UVv64VayunSS3mwNl8jP-40" value="ItemID" style="ellipse;whiteSpace=wrap;html=1;" parent="1" vertex="1">
          <mxGeometry x="258.5" y="920" width="75" height="50" as="geometry" />
        </mxCell>
        <mxCell id="UVv64VayunSS3mwNl8jP-41" value="&lt;u&gt;InventoryID&lt;/u&gt;" style="ellipse;whiteSpace=wrap;html=1;" parent="1" vertex="1">
          <mxGeometry x="327.5" y="845" width="75" height="50" as="geometry" />
        </mxCell>
        <mxCell id="UVv64VayunSS3mwNl8jP-42" value="" style="endArrow=none;dashed=1;html=1;rounded=0;" parent="1" edge="1">
          <mxGeometry width="50" height="50" relative="1" as="geometry">
            <mxPoint x="266" y="951" as="sourcePoint" />
            <mxPoint x="326" y="951" as="targetPoint" />
          </mxGeometry>
        </mxCell>
        <mxCell id="UVv64VayunSS3mwNl8jP-43" value="" style="endArrow=none;dashed=1;html=1;rounded=0;" parent="1" edge="1">
          <mxGeometry width="50" height="50" relative="1" as="geometry">
            <mxPoint x="300.17" y="563.39" as="sourcePoint" />
            <mxPoint x="360.17" y="563.39" as="targetPoint" />
          </mxGeometry>
        </mxCell>
        <mxCell id="UVv64VayunSS3mwNl8jP-44" value="PaymentDate" style="ellipse;whiteSpace=wrap;html=1;" parent="1" vertex="1">
          <mxGeometry x="-416" y="810" width="75" height="50" as="geometry" />
        </mxCell>
        <mxCell id="UVv64VayunSS3mwNl8jP-45" value="PaymentType" style="ellipse;whiteSpace=wrap;html=1;" parent="1" vertex="1">
          <mxGeometry x="-400" y="740" width="75" height="50" as="geometry" />
        </mxCell>
        <mxCell id="UVv64VayunSS3mwNl8jP-46" value="Amount" style="ellipse;whiteSpace=wrap;html=1;dashed=1;dashPattern=8 8;" parent="1" vertex="1">
          <mxGeometry x="-370" y="880" width="75" height="50" as="geometry" />
        </mxCell>
        <mxCell id="UVv64VayunSS3mwNl8jP-47" value="OrderID" style="ellipse;whiteSpace=wrap;html=1;" parent="1" vertex="1">
          <mxGeometry x="-260" y="880" width="75" height="50" as="geometry" />
        </mxCell>
        <mxCell id="UVv64VayunSS3mwNl8jP-48" value="&lt;u&gt;PaymentID&lt;/u&gt;" style="ellipse;whiteSpace=wrap;html=1;" parent="1" vertex="1">
          <mxGeometry x="-199.5" y="810" width="75" height="50" as="geometry" />
        </mxCell>
        <mxCell id="UVv64VayunSS3mwNl8jP-49" value="" style="endArrow=none;dashed=1;html=1;rounded=0;" parent="1" edge="1">
          <mxGeometry width="50" height="50" relative="1" as="geometry">
            <mxPoint x="-250.5" y="911" as="sourcePoint" />
            <mxPoint x="-190.5" y="911" as="targetPoint" />
          </mxGeometry>
        </mxCell>
        <mxCell id="UVv64VayunSS3mwNl8jP-50" value="OrderDate" style="ellipse;whiteSpace=wrap;html=1;" parent="1" vertex="1">
          <mxGeometry x="-250" y="577.5" width="75" height="50" as="geometry" />
        </mxCell>
        <mxCell id="UVv64VayunSS3mwNl8jP-51" value="UserId" style="ellipse;whiteSpace=wrap;html=1;" parent="1" vertex="1">
          <mxGeometry x="-295" y="527.5" width="75" height="50" as="geometry" />
        </mxCell>
        <mxCell id="UVv64VayunSS3mwNl8jP-52" value="TotalAmount" style="ellipse;whiteSpace=wrap;html=1;dashed=1;dashPattern=8 8;" parent="1" vertex="1">
          <mxGeometry x="10" y="578.5" width="75" height="50" as="geometry" />
        </mxCell>
        <mxCell id="UVv64VayunSS3mwNl8jP-53" value="CustomerID" style="ellipse;whiteSpace=wrap;html=1;" parent="1" vertex="1">
          <mxGeometry x="-73" y="610" width="75" height="50" as="geometry" />
        </mxCell>
        <mxCell id="UVv64VayunSS3mwNl8jP-54" value="&lt;u&gt;OrderID&lt;/u&gt;" style="ellipse;whiteSpace=wrap;html=1;" parent="1" vertex="1">
          <mxGeometry x="47.5" y="527.5" width="75" height="50" as="geometry" />
        </mxCell>
        <mxCell id="UVv64VayunSS3mwNl8jP-55" value="" style="endArrow=none;dashed=1;html=1;rounded=0;" parent="1" edge="1">
          <mxGeometry width="50" height="50" relative="1" as="geometry">
            <mxPoint x="-287.5" y="560.5" as="sourcePoint" />
            <mxPoint x="-227.5" y="560.5" as="targetPoint" />
          </mxGeometry>
        </mxCell>
        <mxCell id="UVv64VayunSS3mwNl8jP-56" value="" style="endArrow=none;dashed=1;html=1;rounded=0;" parent="1" edge="1">
          <mxGeometry width="50" height="50" relative="1" as="geometry">
            <mxPoint x="-64.5" y="642" as="sourcePoint" />
            <mxPoint x="-4.5" y="642" as="targetPoint" />
          </mxGeometry>
        </mxCell>
        <mxCell id="UVv64VayunSS3mwNl8jP-57" value="SubTotal" style="ellipse;whiteSpace=wrap;html=1;dashed=1;dashPattern=8 8;" parent="1" vertex="1">
          <mxGeometry x="220" y="330" width="75" height="50" as="geometry" />
        </mxCell>
        <mxCell id="UVv64VayunSS3mwNl8jP-58" value="Quantity" style="ellipse;whiteSpace=wrap;html=1;" parent="1" vertex="1">
          <mxGeometry x="250.99" y="249" width="75" height="50" as="geometry" />
        </mxCell>
        <mxCell id="UVv64VayunSS3mwNl8jP-59" value="ItemID" style="ellipse;whiteSpace=wrap;html=1;" parent="1" vertex="1">
          <mxGeometry x="411" y="249" width="75" height="50" as="geometry" />
        </mxCell>
        <mxCell id="UVv64VayunSS3mwNl8jP-60" value="OrderID" style="ellipse;whiteSpace=wrap;html=1;" parent="1" vertex="1">
          <mxGeometry x="443.5" y="330" width="75" height="50" as="geometry" />
        </mxCell>
        <mxCell id="UVv64VayunSS3mwNl8jP-61" value="" style="ellipse;whiteSpace=wrap;html=1;fillColor=none;" parent="1" vertex="1">
          <mxGeometry x="258.5" y="254" width="60" height="40" as="geometry" />
        </mxCell>
        <mxCell id="UVv64VayunSS3mwNl8jP-62" value="" style="endArrow=none;dashed=1;html=1;rounded=0;" parent="1" edge="1">
          <mxGeometry width="50" height="50" relative="1" as="geometry">
            <mxPoint x="419" y="281" as="sourcePoint" />
            <mxPoint x="479" y="281" as="targetPoint" />
          </mxGeometry>
        </mxCell>
        <mxCell id="UVv64VayunSS3mwNl8jP-63" value="" style="endArrow=none;dashed=1;html=1;rounded=0;" parent="1" edge="1">
          <mxGeometry width="50" height="50" relative="1" as="geometry">
            <mxPoint x="452" y="362" as="sourcePoint" />
            <mxPoint x="512" y="362" as="targetPoint" />
          </mxGeometry>
        </mxCell>
        <mxCell id="EtOnXM9Tl4kWDsRmleST-1" value="" style="endArrow=none;html=1;rounded=0;entryX=0.086;entryY=0.787;entryDx=0;entryDy=0;entryPerimeter=0;" parent="1" target="UVv64VayunSS3mwNl8jP-23" edge="1">
          <mxGeometry width="50" height="50" relative="1" as="geometry">
            <mxPoint x="-500" y="330" as="sourcePoint" />
            <mxPoint x="-460" y="290" as="targetPoint" />
          </mxGeometry>
        </mxCell>
        <mxCell id="EtOnXM9Tl4kWDsRmleST-3" value="" style="endArrow=none;html=1;rounded=0;exitX=1;exitY=0.5;exitDx=0;exitDy=0;entryX=0.006;entryY=0.708;entryDx=0;entryDy=0;entryPerimeter=0;" parent="1" source="UVv64VayunSS3mwNl8jP-20" target="UVv64VayunSS3mwNl8jP-3" edge="1">
          <mxGeometry width="50" height="50" relative="1" as="geometry">
            <mxPoint x="-625" y="371" as="sourcePoint" />
            <mxPoint x="-600" y="370" as="targetPoint" />
          </mxGeometry>
        </mxCell>
        <mxCell id="EtOnXM9Tl4kWDsRmleST-4" value="" style="endArrow=none;html=1;rounded=0;entryX=0.25;entryY=0;entryDx=0;entryDy=0;exitX=1;exitY=1;exitDx=0;exitDy=0;" parent="1" source="UVv64VayunSS3mwNl8jP-21" target="UVv64VayunSS3mwNl8jP-3" edge="1">
          <mxGeometry width="50" height="50" relative="1" as="geometry">
            <mxPoint x="-610" y="323.33" as="sourcePoint" />
            <mxPoint x="-584" y="302.33" as="targetPoint" />
          </mxGeometry>
        </mxCell>
        <mxCell id="EtOnXM9Tl4kWDsRmleST-5" value="" style="endArrow=none;html=1;rounded=0;entryX=0.5;entryY=1;entryDx=0;entryDy=0;exitX=0.5;exitY=0;exitDx=0;exitDy=0;" parent="1" source="UVv64VayunSS3mwNl8jP-3" target="UVv64VayunSS3mwNl8jP-22" edge="1">
          <mxGeometry width="50" height="50" relative="1" as="geometry">
            <mxPoint x="-556" y="323.33" as="sourcePoint" />
            <mxPoint x="-530" y="302.33" as="targetPoint" />
          </mxGeometry>
        </mxCell>
        <mxCell id="EtOnXM9Tl4kWDsRmleST-6" value="" style="endArrow=none;html=1;rounded=0;entryX=0;entryY=0.5;entryDx=0;entryDy=0;" parent="1" target="UVv64VayunSS3mwNl8jP-19" edge="1">
          <mxGeometry width="50" height="50" relative="1" as="geometry">
            <mxPoint x="-488" y="365.5" as="sourcePoint" />
            <mxPoint x="-462" y="344.5" as="targetPoint" />
          </mxGeometry>
        </mxCell>
        <mxCell id="EtOnXM9Tl4kWDsRmleST-7" value="" style="endArrow=none;html=1;rounded=0;entryX=0.5;entryY=1;entryDx=0;entryDy=0;exitX=0.5;exitY=0;exitDx=0;exitDy=0;" parent="1" edge="1">
          <mxGeometry width="50" height="50" relative="1" as="geometry">
            <mxPoint x="-87.52999999999997" y="330" as="sourcePoint" />
            <mxPoint x="-87.52999999999997" y="290" as="targetPoint" />
          </mxGeometry>
        </mxCell>
        <mxCell id="EtOnXM9Tl4kWDsRmleST-8" value="" style="endArrow=none;html=1;rounded=0;entryX=1;entryY=1;entryDx=0;entryDy=0;exitX=0.5;exitY=0;exitDx=0;exitDy=0;" parent="1" target="UVv64VayunSS3mwNl8jP-26" edge="1">
          <mxGeometry width="50" height="50" relative="1" as="geometry">
            <mxPoint x="-117" y="330" as="sourcePoint" />
            <mxPoint x="-117" y="290" as="targetPoint" />
          </mxGeometry>
        </mxCell>
        <mxCell id="EtOnXM9Tl4kWDsRmleST-9" value="" style="endArrow=none;html=1;rounded=0;entryX=0;entryY=1;entryDx=0;entryDy=0;exitX=0.75;exitY=0;exitDx=0;exitDy=0;" parent="1" source="UVv64VayunSS3mwNl8jP-7" target="UVv64VayunSS3mwNl8jP-29" edge="1">
          <mxGeometry width="50" height="50" relative="1" as="geometry">
            <mxPoint x="-30" y="340" as="sourcePoint" />
            <mxPoint x="-30" y="300" as="targetPoint" />
          </mxGeometry>
        </mxCell>
        <mxCell id="EtOnXM9Tl4kWDsRmleST-10" value="" style="endArrow=none;html=1;rounded=0;entryX=1;entryY=0.5;entryDx=0;entryDy=0;exitX=0;exitY=0.5;exitDx=0;exitDy=0;" parent="1" source="UVv64VayunSS3mwNl8jP-7" target="UVv64VayunSS3mwNl8jP-25" edge="1">
          <mxGeometry width="50" height="50" relative="1" as="geometry">
            <mxPoint x="-162.22000000000003" y="385" as="sourcePoint" />
            <mxPoint x="-162.22000000000003" y="345" as="targetPoint" />
          </mxGeometry>
        </mxCell>
        <mxCell id="EtOnXM9Tl4kWDsRmleST-11" value="" style="endArrow=none;html=1;rounded=0;entryX=0;entryY=0.5;entryDx=0;entryDy=0;exitX=1;exitY=0.5;exitDx=0;exitDy=0;" parent="1" source="UVv64VayunSS3mwNl8jP-7" target="UVv64VayunSS3mwNl8jP-27" edge="1">
          <mxGeometry width="50" height="50" relative="1" as="geometry">
            <mxPoint x="-7" y="380" as="sourcePoint" />
            <mxPoint x="-7" y="340" as="targetPoint" />
          </mxGeometry>
        </mxCell>
        <mxCell id="EtOnXM9Tl4kWDsRmleST-14" value="" style="endArrow=none;html=1;rounded=0;entryX=0.33;entryY=0.029;entryDx=0;entryDy=0;exitX=0.75;exitY=1;exitDx=0;exitDy=0;entryPerimeter=0;" parent="1" source="UVv64VayunSS3mwNl8jP-9" target="UVv64VayunSS3mwNl8jP-36" edge="1">
          <mxGeometry width="50" height="50" relative="1" as="geometry">
            <mxPoint x="586.0000000000001" y="880" as="sourcePoint" />
            <mxPoint x="618.0000000000001" y="865" as="targetPoint" />
          </mxGeometry>
        </mxCell>
        <mxCell id="EtOnXM9Tl4kWDsRmleST-18" value="" style="endArrow=none;html=1;rounded=0;entryX=1;entryY=1;entryDx=0;entryDy=0;exitX=0.5;exitY=0;exitDx=0;exitDy=0;" parent="1" target="UVv64VayunSS3mwNl8jP-32" edge="1">
          <mxGeometry width="50" height="50" relative="1" as="geometry">
            <mxPoint x="375.9200000000001" y="590" as="sourcePoint" />
            <mxPoint x="341.92" y="576" as="targetPoint" />
          </mxGeometry>
        </mxCell>
        <mxCell id="EtOnXM9Tl4kWDsRmleST-19" value="" style="endArrow=none;html=1;rounded=0;entryX=0;entryY=1;entryDx=0;entryDy=0;exitX=0.75;exitY=0;exitDx=0;exitDy=0;" parent="1" target="UVv64VayunSS3mwNl8jP-34" edge="1">
          <mxGeometry width="50" height="50" relative="1" as="geometry">
            <mxPoint x="435.9200000000001" y="590" as="sourcePoint" />
            <mxPoint x="467.9200000000001" y="575" as="targetPoint" />
          </mxGeometry>
        </mxCell>
        <mxCell id="EtOnXM9Tl4kWDsRmleST-20" value="" style="endArrow=none;html=1;rounded=0;exitX=0;exitY=0.5;exitDx=0;exitDy=0;entryX=1;entryY=0.5;entryDx=0;entryDy=0;" parent="1" target="UVv64VayunSS3mwNl8jP-31" edge="1">
          <mxGeometry width="50" height="50" relative="1" as="geometry">
            <mxPoint x="352.92" y="615" as="sourcePoint" />
            <mxPoint x="270" y="615" as="targetPoint" />
          </mxGeometry>
        </mxCell>
        <mxCell id="EtOnXM9Tl4kWDsRmleST-21" value="" style="endArrow=none;html=1;rounded=0;entryX=0;entryY=0.5;entryDx=0;entryDy=0;exitX=1;exitY=0.5;exitDx=0;exitDy=0;" parent="1" target="UVv64VayunSS3mwNl8jP-35" edge="1">
          <mxGeometry width="50" height="50" relative="1" as="geometry">
            <mxPoint x="462.9200000000001" y="615" as="sourcePoint" />
            <mxPoint x="494.9200000000001" y="625" as="targetPoint" />
          </mxGeometry>
        </mxCell>
        <mxCell id="EtOnXM9Tl4kWDsRmleST-22" value="" style="endArrow=none;html=1;rounded=0;exitX=1.012;exitY=0.826;exitDx=0;exitDy=0;exitPerimeter=0;" parent="1" source="UVv64VayunSS3mwNl8jP-8" target="UVv64VayunSS3mwNl8jP-52" edge="1">
          <mxGeometry width="50" height="50" relative="1" as="geometry">
            <mxPoint x="-87.52999999999997" y="523.5" as="sourcePoint" />
            <mxPoint x="-87.52999999999997" y="483.5" as="targetPoint" />
          </mxGeometry>
        </mxCell>
        <mxCell id="EtOnXM9Tl4kWDsRmleST-23" value="" style="endArrow=none;html=1;rounded=0;entryX=1;entryY=0.5;entryDx=0;entryDy=0;exitX=0;exitY=0.5;exitDx=0;exitDy=0;" parent="1" source="UVv64VayunSS3mwNl8jP-8" target="UVv64VayunSS3mwNl8jP-51" edge="1">
          <mxGeometry width="50" height="50" relative="1" as="geometry">
            <mxPoint x="-117" y="523.5" as="sourcePoint" />
            <mxPoint x="-151" y="509.5" as="targetPoint" />
          </mxGeometry>
        </mxCell>
        <mxCell id="EtOnXM9Tl4kWDsRmleST-24" value="" style="endArrow=none;html=1;rounded=0;entryX=0.5;entryY=0;entryDx=0;entryDy=0;exitX=0.75;exitY=1;exitDx=0;exitDy=0;" parent="1" source="UVv64VayunSS3mwNl8jP-8" target="UVv64VayunSS3mwNl8jP-53" edge="1">
          <mxGeometry width="50" height="50" relative="1" as="geometry">
            <mxPoint x="-85" y="580" as="sourcePoint" />
            <mxPoint x="-25" y="508.5" as="targetPoint" />
          </mxGeometry>
        </mxCell>
        <mxCell id="EtOnXM9Tl4kWDsRmleST-25" value="" style="endArrow=none;html=1;rounded=0;entryX=1;entryY=0;entryDx=0;entryDy=0;exitX=0;exitY=0.75;exitDx=0;exitDy=0;" parent="1" source="UVv64VayunSS3mwNl8jP-8" target="UVv64VayunSS3mwNl8jP-50" edge="1">
          <mxGeometry width="50" height="50" relative="1" as="geometry">
            <mxPoint x="-140" y="548.5" as="sourcePoint" />
            <mxPoint x="-172" y="558.5" as="targetPoint" />
          </mxGeometry>
        </mxCell>
        <mxCell id="EtOnXM9Tl4kWDsRmleST-26" value="" style="endArrow=none;html=1;rounded=0;entryX=0;entryY=0.5;entryDx=0;entryDy=0;exitX=1;exitY=0.5;exitDx=0;exitDy=0;" parent="1" source="UVv64VayunSS3mwNl8jP-8" target="UVv64VayunSS3mwNl8jP-54" edge="1">
          <mxGeometry width="50" height="50" relative="1" as="geometry">
            <mxPoint x="-30" y="548.5" as="sourcePoint" />
            <mxPoint x="2" y="558.5" as="targetPoint" />
          </mxGeometry>
        </mxCell>
        <mxCell id="EtOnXM9Tl4kWDsRmleST-28" value="" style="endArrow=none;html=1;rounded=0;entryX=1;entryY=1;entryDx=0;entryDy=0;exitX=0.25;exitY=0;exitDx=0;exitDy=0;" parent="1" source="UVv64VayunSS3mwNl8jP-5" target="UVv64VayunSS3mwNl8jP-58" edge="1">
          <mxGeometry width="50" height="50" relative="1" as="geometry">
            <mxPoint x="336.5" y="306.5" as="sourcePoint" />
            <mxPoint x="302.5" y="292.5" as="targetPoint" />
          </mxGeometry>
        </mxCell>
        <mxCell id="EtOnXM9Tl4kWDsRmleST-29" value="" style="endArrow=none;html=1;rounded=0;exitX=0.75;exitY=0;exitDx=0;exitDy=0;" parent="1" source="UVv64VayunSS3mwNl8jP-5" target="UVv64VayunSS3mwNl8jP-59" edge="1">
          <mxGeometry width="50" height="50" relative="1" as="geometry">
            <mxPoint x="396.5" y="306.5" as="sourcePoint" />
            <mxPoint x="428.5" y="291.5" as="targetPoint" />
          </mxGeometry>
        </mxCell>
        <mxCell id="EtOnXM9Tl4kWDsRmleST-30" value="" style="endArrow=none;html=1;rounded=0;entryX=1;entryY=0;entryDx=0;entryDy=0;exitX=0;exitY=0.5;exitDx=0;exitDy=0;" parent="1" target="UVv64VayunSS3mwNl8jP-57" edge="1">
          <mxGeometry width="50" height="50" relative="1" as="geometry">
            <mxPoint x="313.5" y="331.5" as="sourcePoint" />
            <mxPoint x="281.5" y="341.5" as="targetPoint" />
          </mxGeometry>
        </mxCell>
        <mxCell id="EtOnXM9Tl4kWDsRmleST-31" value="" style="endArrow=none;html=1;rounded=0;entryX=0;entryY=0;entryDx=0;entryDy=0;exitX=1;exitY=0.5;exitDx=0;exitDy=0;" parent="1" target="UVv64VayunSS3mwNl8jP-60" edge="1">
          <mxGeometry width="50" height="50" relative="1" as="geometry">
            <mxPoint x="423.5" y="331.5" as="sourcePoint" />
            <mxPoint x="455.5" y="341.5" as="targetPoint" />
          </mxGeometry>
        </mxCell>
        <mxCell id="EtOnXM9Tl4kWDsRmleST-33" value="" style="endArrow=none;html=1;rounded=0;entryX=0.5;entryY=0;entryDx=0;entryDy=0;exitX=0.25;exitY=1;exitDx=0;exitDy=0;" parent="1" source="UVv64VayunSS3mwNl8jP-10" target="UVv64VayunSS3mwNl8jP-39" edge="1">
          <mxGeometry width="50" height="50" relative="1" as="geometry">
            <mxPoint x="213" y="845" as="sourcePoint" />
            <mxPoint x="179" y="831" as="targetPoint" />
          </mxGeometry>
        </mxCell>
        <mxCell id="EtOnXM9Tl4kWDsRmleST-34" value="" style="endArrow=none;html=1;rounded=0;exitX=0.657;exitY=1.006;exitDx=0;exitDy=0;entryX=0.5;entryY=0;entryDx=0;entryDy=0;exitPerimeter=0;" parent="1" source="UVv64VayunSS3mwNl8jP-10" target="UVv64VayunSS3mwNl8jP-40" edge="1">
          <mxGeometry width="50" height="50" relative="1" as="geometry">
            <mxPoint x="273" y="845" as="sourcePoint" />
            <mxPoint x="285" y="821" as="targetPoint" />
          </mxGeometry>
        </mxCell>
        <mxCell id="EtOnXM9Tl4kWDsRmleST-35" value="" style="endArrow=none;html=1;rounded=0;entryX=1;entryY=0.5;entryDx=0;entryDy=0;exitX=0;exitY=0.5;exitDx=0;exitDy=0;" parent="1" target="UVv64VayunSS3mwNl8jP-38" edge="1">
          <mxGeometry width="50" height="50" relative="1" as="geometry">
            <mxPoint x="190" y="870" as="sourcePoint" />
            <mxPoint x="158" y="880" as="targetPoint" />
          </mxGeometry>
        </mxCell>
        <mxCell id="EtOnXM9Tl4kWDsRmleST-36" value="" style="endArrow=none;html=1;rounded=0;entryX=0;entryY=0.5;entryDx=0;entryDy=0;exitX=1;exitY=0.5;exitDx=0;exitDy=0;" parent="1" target="UVv64VayunSS3mwNl8jP-41" edge="1">
          <mxGeometry width="50" height="50" relative="1" as="geometry">
            <mxPoint x="300" y="870" as="sourcePoint" />
            <mxPoint x="332" y="880" as="targetPoint" />
          </mxGeometry>
        </mxCell>
        <mxCell id="EtOnXM9Tl4kWDsRmleST-37" value="" style="endArrow=none;html=1;rounded=0;entryX=0.5;entryY=0;entryDx=0;entryDy=0;exitX=0.25;exitY=1;exitDx=0;exitDy=0;" parent="1" source="UVv64VayunSS3mwNl8jP-4" target="UVv64VayunSS3mwNl8jP-46" edge="1">
          <mxGeometry width="50" height="50" relative="1" as="geometry">
            <mxPoint x="-273.53" y="800" as="sourcePoint" />
            <mxPoint x="-273.53" y="760" as="targetPoint" />
          </mxGeometry>
        </mxCell>
        <mxCell id="EtOnXM9Tl4kWDsRmleST-38" value="" style="endArrow=none;html=1;rounded=0;entryX=1;entryY=1;entryDx=0;entryDy=0;exitX=0.5;exitY=0;exitDx=0;exitDy=0;" parent="1" target="UVv64VayunSS3mwNl8jP-45" edge="1">
          <mxGeometry width="50" height="50" relative="1" as="geometry">
            <mxPoint x="-303" y="800" as="sourcePoint" />
            <mxPoint x="-337" y="786" as="targetPoint" />
          </mxGeometry>
        </mxCell>
        <mxCell id="EtOnXM9Tl4kWDsRmleST-39" value="" style="endArrow=none;html=1;rounded=0;entryX=0.5;entryY=0;entryDx=0;entryDy=0;exitX=0.691;exitY=1;exitDx=0;exitDy=0;exitPerimeter=0;" parent="1" source="UVv64VayunSS3mwNl8jP-4" target="UVv64VayunSS3mwNl8jP-47" edge="1">
          <mxGeometry width="50" height="50" relative="1" as="geometry">
            <mxPoint x="-243" y="800" as="sourcePoint" />
            <mxPoint x="-211" y="785" as="targetPoint" />
          </mxGeometry>
        </mxCell>
        <mxCell id="EtOnXM9Tl4kWDsRmleST-40" value="" style="endArrow=none;html=1;rounded=0;entryX=1;entryY=0.5;entryDx=0;entryDy=0;exitX=0;exitY=0.5;exitDx=0;exitDy=0;" parent="1" target="UVv64VayunSS3mwNl8jP-44" edge="1">
          <mxGeometry width="50" height="50" relative="1" as="geometry">
            <mxPoint x="-326" y="825" as="sourcePoint" />
            <mxPoint x="-358" y="835" as="targetPoint" />
          </mxGeometry>
        </mxCell>
        <mxCell id="EtOnXM9Tl4kWDsRmleST-41" value="" style="endArrow=none;html=1;rounded=0;entryX=0;entryY=0.5;entryDx=0;entryDy=0;exitX=1;exitY=0.5;exitDx=0;exitDy=0;" parent="1" target="UVv64VayunSS3mwNl8jP-48" edge="1">
          <mxGeometry width="50" height="50" relative="1" as="geometry">
            <mxPoint x="-216" y="825" as="sourcePoint" />
            <mxPoint x="-184" y="835" as="targetPoint" />
          </mxGeometry>
        </mxCell>
        <mxCell id="EtOnXM9Tl4kWDsRmleST-42" value="" style="html=1;whiteSpace=wrap;aspect=fixed;shape=isoRectangle;" parent="1" vertex="1">
          <mxGeometry x="-420" y="449.9" width="47.67" height="28.6" as="geometry" />
        </mxCell>
        <mxCell id="EtOnXM9Tl4kWDsRmleST-53" value="" style="endArrow=none;html=1;rounded=0;entryX=0.5;entryY=1;entryDx=0;entryDy=0;exitX=0.039;exitY=0.498;exitDx=0;exitDy=0;exitPerimeter=0;" parent="1" edge="1">
          <mxGeometry width="50" height="50" relative="1" as="geometry">
            <mxPoint x="-418.14086999999995" y="463.1428000000001" as="sourcePoint" />
            <mxPoint x="-543" y="379" as="targetPoint" />
            <Array as="points">
              <mxPoint x="-543" y="463" />
            </Array>
          </mxGeometry>
        </mxCell>
        <mxCell id="EtOnXM9Tl4kWDsRmleST-58" value="" style="html=1;whiteSpace=wrap;aspect=fixed;shape=isoRectangle;" parent="1" vertex="1">
          <mxGeometry x="204.66999999999996" y="449.9" width="47.67" height="28.6" as="geometry" />
        </mxCell>
        <mxCell id="EtOnXM9Tl4kWDsRmleST-59" value="" style="endArrow=none;html=1;rounded=0;entryX=0.25;entryY=0;entryDx=0;entryDy=0;exitX=1.003;exitY=0.503;exitDx=0;exitDy=0;exitPerimeter=0;" parent="1" source="EtOnXM9Tl4kWDsRmleST-42" target="UVv64VayunSS3mwNl8jP-8" edge="1">
          <mxGeometry width="50" height="50" relative="1" as="geometry">
            <mxPoint x="-370" y="464" as="sourcePoint" />
            <mxPoint x="-150" y="620" as="targetPoint" />
            <Array as="points">
              <mxPoint x="-180" y="464" />
            </Array>
          </mxGeometry>
        </mxCell>
        <mxCell id="EtOnXM9Tl4kWDsRmleST-57" value="" style="html=1;whiteSpace=wrap;aspect=fixed;shape=isoRectangle;" parent="1" vertex="1">
          <mxGeometry x="-108.84" y="441.4" width="47.67" height="28.6" as="geometry" />
        </mxCell>
        <mxCell id="EtOnXM9Tl4kWDsRmleST-60" value="" style="endArrow=none;html=1;rounded=0;entryX=0.5;entryY=1;entryDx=0;entryDy=0;exitX=0.504;exitY=0.015;exitDx=0;exitDy=0;exitPerimeter=0;" parent="1" source="EtOnXM9Tl4kWDsRmleST-57" target="UVv64VayunSS3mwNl8jP-7" edge="1">
          <mxGeometry width="50" height="50" relative="1" as="geometry">
            <mxPoint x="-85" y="440" as="sourcePoint" />
            <mxPoint x="-200" y="510" as="targetPoint" />
          </mxGeometry>
        </mxCell>
        <mxCell id="EtOnXM9Tl4kWDsRmleST-61" value="" style="endArrow=none;html=1;rounded=0;entryX=0.505;entryY=0.992;entryDx=0;entryDy=0;exitX=0.502;exitY=-0.006;exitDx=0;exitDy=0;exitPerimeter=0;entryPerimeter=0;" parent="1" source="UVv64VayunSS3mwNl8jP-14" target="EtOnXM9Tl4kWDsRmleST-57" edge="1">
          <mxGeometry width="50" height="50" relative="1" as="geometry">
            <mxPoint x="-84.42" y="532.5" as="sourcePoint" />
            <mxPoint x="-84.42" y="470.5" as="targetPoint" />
          </mxGeometry>
        </mxCell>
        <mxCell id="EtOnXM9Tl4kWDsRmleST-63" value="" style="endArrow=none;html=1;rounded=0;entryX=0.015;entryY=0.501;entryDx=0;entryDy=0;entryPerimeter=0;exitX=0.75;exitY=0;exitDx=0;exitDy=0;" parent="1" source="UVv64VayunSS3mwNl8jP-8" target="EtOnXM9Tl4kWDsRmleST-58" edge="1">
          <mxGeometry width="50" height="50" relative="1" as="geometry">
            <mxPoint x="-49.5" y="526.5" as="sourcePoint" />
            <mxPoint x="233.90834999999993" y="464.0294" as="targetPoint" />
            <Array as="points">
              <mxPoint x="20" y="464" />
            </Array>
          </mxGeometry>
        </mxCell>
        <mxCell id="EtOnXM9Tl4kWDsRmleST-64" value="" style="endArrow=none;html=1;rounded=0;entryX=0.495;entryY=1.011;entryDx=0;entryDy=0;entryPerimeter=0;exitX=0.992;exitY=0.504;exitDx=0;exitDy=0;exitPerimeter=0;" parent="1" source="EtOnXM9Tl4kWDsRmleST-58" edge="1">
          <mxGeometry width="50" height="50" relative="1" as="geometry">
            <mxPoint x="280.8633000000002" y="463.65659999999997" as="sourcePoint" />
            <mxPoint x="368.06995000000006" y="360.56100000000004" as="targetPoint" />
            <Array as="points">
              <mxPoint x="368" y="464" />
            </Array>
          </mxGeometry>
        </mxCell>
        <mxCell id="EtOnXM9Tl4kWDsRmleST-65" value="" style="html=1;whiteSpace=wrap;aspect=fixed;shape=isoRectangle;" parent="1" vertex="1">
          <mxGeometry x="213.09000000000003" y="454.95" width="30.83" height="18.5" as="geometry" />
        </mxCell>
        <mxCell id="EtOnXM9Tl4kWDsRmleST-67" value="" style="html=1;whiteSpace=wrap;aspect=fixed;shape=isoRectangle;" parent="1" vertex="1">
          <mxGeometry x="384.0799999999999" y="498.9" width="47.67" height="28.6" as="geometry" />
        </mxCell>
        <mxCell id="EtOnXM9Tl4kWDsRmleST-68" value="" style="html=1;whiteSpace=wrap;aspect=fixed;shape=isoRectangle;" parent="1" vertex="1">
          <mxGeometry x="392.5" y="503.95" width="30.83" height="18.5" as="geometry" />
        </mxCell>
        <mxCell id="EtOnXM9Tl4kWDsRmleST-69" value="" style="endArrow=none;html=1;rounded=0;exitX=0.492;exitY=0.061;exitDx=0;exitDy=0;exitPerimeter=0;entryX=0.862;entryY=0.991;entryDx=0;entryDy=0;entryPerimeter=0;" parent="1" source="EtOnXM9Tl4kWDsRmleST-67" target="UVv64VayunSS3mwNl8jP-5" edge="1">
          <mxGeometry width="50" height="50" relative="1" as="geometry">
            <mxPoint x="381.75" y="473.45" as="sourcePoint" />
            <mxPoint x="431.75" y="423.45" as="targetPoint" />
          </mxGeometry>
        </mxCell>
        <mxCell id="EtOnXM9Tl4kWDsRmleST-70" value="" style="endArrow=none;html=1;rounded=0;exitX=0.5;exitY=0;exitDx=0;exitDy=0;entryX=0.498;entryY=0.994;entryDx=0;entryDy=0;entryPerimeter=0;" parent="1" source="UVv64VayunSS3mwNl8jP-6" target="EtOnXM9Tl4kWDsRmleST-67" edge="1">
          <mxGeometry width="50" height="50" relative="1" as="geometry">
            <mxPoint x="382.90999999999997" y="580" as="sourcePoint" />
            <mxPoint x="408" y="530" as="targetPoint" />
          </mxGeometry>
        </mxCell>
        <mxCell id="EtOnXM9Tl4kWDsRmleST-72" value="" style="endArrow=none;html=1;rounded=0;entryX=0.5;entryY=0;entryDx=0;entryDy=0;exitX=0.75;exitY=1;exitDx=0;exitDy=0;" parent="1" target="UVv64VayunSS3mwNl8jP-37" edge="1">
          <mxGeometry width="50" height="50" relative="1" as="geometry">
            <mxPoint x="529.42" y="930" as="sourcePoint" />
            <mxPoint x="543.42" y="952" as="targetPoint" />
          </mxGeometry>
        </mxCell>
        <mxCell id="EtOnXM9Tl4kWDsRmleST-76" value="" style="html=1;whiteSpace=wrap;aspect=fixed;shape=isoRectangle;" parent="1" vertex="1">
          <mxGeometry x="462.91999999999996" y="747.4" width="47.67" height="28.6" as="geometry" />
        </mxCell>
        <mxCell id="EtOnXM9Tl4kWDsRmleST-77" value="" style="endArrow=none;html=1;rounded=0;entryX=0.75;entryY=1;entryDx=0;entryDy=0;exitX=0.504;exitY=0.015;exitDx=0;exitDy=0;exitPerimeter=0;" parent="1" source="EtOnXM9Tl4kWDsRmleST-76" target="UVv64VayunSS3mwNl8jP-6" edge="1">
          <mxGeometry width="50" height="50" relative="1" as="geometry">
            <mxPoint x="486.76" y="746" as="sourcePoint" />
            <mxPoint x="486.76" y="686" as="targetPoint" />
            <Array as="points">
              <mxPoint x="487" y="700" />
              <mxPoint x="435" y="700" />
            </Array>
          </mxGeometry>
        </mxCell>
        <mxCell id="EtOnXM9Tl4kWDsRmleST-78" value="" style="endArrow=none;html=1;rounded=0;entryX=0.505;entryY=0.992;entryDx=0;entryDy=0;exitX=0.5;exitY=0;exitDx=0;exitDy=0;entryPerimeter=0;" parent="1" source="UVv64VayunSS3mwNl8jP-9" target="EtOnXM9Tl4kWDsRmleST-76" edge="1">
          <mxGeometry width="50" height="50" relative="1" as="geometry">
            <mxPoint x="486.76" y="833" as="sourcePoint" />
            <mxPoint x="487.34000000000003" y="776.5" as="targetPoint" />
            <Array as="points">
              <mxPoint x="560" y="840" />
              <mxPoint x="487" y="840" />
            </Array>
          </mxGeometry>
        </mxCell>
        <mxCell id="EtOnXM9Tl4kWDsRmleST-79" value="" style="html=1;whiteSpace=wrap;aspect=fixed;shape=isoRectangle;" parent="1" vertex="1">
          <mxGeometry x="-222.67000000000007" y="711.4" width="47.67" height="28.6" as="geometry" />
        </mxCell>
        <mxCell id="EtOnXM9Tl4kWDsRmleST-80" value="" style="html=1;whiteSpace=wrap;aspect=fixed;shape=isoRectangle;" parent="1" vertex="1">
          <mxGeometry x="-214.25" y="716.45" width="30.83" height="18.5" as="geometry" />
        </mxCell>
        <mxCell id="EtOnXM9Tl4kWDsRmleST-81" value="" style="endArrow=none;html=1;rounded=0;exitX=0.491;exitY=0.035;exitDx=0;exitDy=0;exitPerimeter=0;" parent="1" source="EtOnXM9Tl4kWDsRmleST-79" edge="1">
          <mxGeometry width="50" height="50" relative="1" as="geometry">
            <mxPoint x="-200" y="710" as="sourcePoint" />
            <mxPoint x="-100" y="577.5" as="targetPoint" />
            <Array as="points">
              <mxPoint x="-200" y="680" />
              <mxPoint x="-100" y="680" />
            </Array>
          </mxGeometry>
        </mxCell>
        <mxCell id="EtOnXM9Tl4kWDsRmleST-82" value="" style="endArrow=none;html=1;rounded=0;entryX=0.492;entryY=0.97;entryDx=0;entryDy=0;entryPerimeter=0;exitX=0.618;exitY=-0.017;exitDx=0;exitDy=0;exitPerimeter=0;" parent="1" source="UVv64VayunSS3mwNl8jP-4" target="EtOnXM9Tl4kWDsRmleST-79" edge="1">
          <mxGeometry width="50" height="50" relative="1" as="geometry">
            <mxPoint x="-282.5" y="800" as="sourcePoint" />
            <mxPoint x="-232.5" y="750" as="targetPoint" />
            <Array as="points">
              <mxPoint x="-258" y="760" />
              <mxPoint x="-199" y="760" />
            </Array>
          </mxGeometry>
        </mxCell>
        <mxCell id="EtOnXM9Tl4kWDsRmleST-84" value="" style="endArrow=none;html=1;rounded=0;entryX=0;entryY=0.75;entryDx=0;entryDy=0;" parent="1" source="UVv64VayunSS3mwNl8jP-33" edge="1" target="UVv64VayunSS3mwNl8jP-6">
          <mxGeometry width="50" height="50" relative="1" as="geometry">
            <mxPoint x="327.5" y="690" as="sourcePoint" />
            <mxPoint x="377.5" y="640" as="targetPoint" />
          </mxGeometry>
        </mxCell>
        <mxCell id="EtOnXM9Tl4kWDsRmleST-85" value="" style="html=1;whiteSpace=wrap;aspect=fixed;shape=isoRectangle;" parent="1" vertex="1">
          <mxGeometry x="318.5" y="760" width="47.67" height="28.6" as="geometry" />
        </mxCell>
        <mxCell id="EtOnXM9Tl4kWDsRmleST-86" value="" style="endArrow=none;html=1;rounded=0;entryX=0.5;entryY=1;entryDx=0;entryDy=0;exitX=0.504;exitY=0.015;exitDx=0;exitDy=0;exitPerimeter=0;" parent="1" source="EtOnXM9Tl4kWDsRmleST-85" target="UVv64VayunSS3mwNl8jP-6" edge="1">
          <mxGeometry width="50" height="50" relative="1" as="geometry">
            <mxPoint x="289.67" y="750" as="sourcePoint" />
            <mxPoint x="289.67" y="690" as="targetPoint" />
            <Array as="points">
              <mxPoint x="343" y="730" />
              <mxPoint x="408" y="730" />
            </Array>
          </mxGeometry>
        </mxCell>
        <mxCell id="EtOnXM9Tl4kWDsRmleST-87" value="" style="endArrow=none;html=1;rounded=0;entryX=0.505;entryY=0.992;entryDx=0;entryDy=0;exitX=0.5;exitY=0;exitDx=0;exitDy=0;entryPerimeter=0;" parent="1" source="UVv64VayunSS3mwNl8jP-10" target="EtOnXM9Tl4kWDsRmleST-85" edge="1">
          <mxGeometry width="50" height="50" relative="1" as="geometry">
            <mxPoint x="289.67" y="837" as="sourcePoint" />
            <mxPoint x="290.25" y="780.5" as="targetPoint" />
            <Array as="points">
              <mxPoint x="245" y="810" />
              <mxPoint x="343" y="810" />
            </Array>
          </mxGeometry>
        </mxCell>
        <mxCell id="EtOnXM9Tl4kWDsRmleST-88" value="1" style="text;html=1;align=center;verticalAlign=middle;resizable=0;points=[];autosize=1;strokeColor=none;fillColor=none;" parent="1" vertex="1">
          <mxGeometry x="-550" y="378" width="30" height="30" as="geometry" />
        </mxCell>
        <mxCell id="EtOnXM9Tl4kWDsRmleST-89" value="N" style="text;html=1;align=center;verticalAlign=middle;resizable=0;points=[];autosize=1;strokeColor=none;fillColor=none;" parent="1" vertex="1">
          <mxGeometry x="-128" y="500" width="30" height="30" as="geometry" />
        </mxCell>
        <mxCell id="EtOnXM9Tl4kWDsRmleST-90" value="1" style="text;html=1;align=center;verticalAlign=middle;resizable=0;points=[];autosize=1;strokeColor=none;fillColor=none;" parent="1" vertex="1">
          <mxGeometry x="-48.5" y="500.95" width="30" height="30" as="geometry" />
        </mxCell>
        <mxCell id="EtOnXM9Tl4kWDsRmleST-91" value="N" style="text;html=1;align=center;verticalAlign=middle;resizable=0;points=[];autosize=1;strokeColor=none;fillColor=none;" parent="1" vertex="1">
          <mxGeometry x="345" y="357" width="30" height="30" as="geometry" />
        </mxCell>
        <mxCell id="cWBj45fKdgNhvtY2ghUl-1" value="1" style="text;html=1;align=center;verticalAlign=middle;resizable=0;points=[];autosize=1;strokeColor=none;fillColor=none;" vertex="1" parent="1">
          <mxGeometry x="-95.17" y="373" width="30" height="30" as="geometry" />
        </mxCell>
        <mxCell id="cWBj45fKdgNhvtY2ghUl-2" value="N" style="text;html=1;align=center;verticalAlign=middle;resizable=0;points=[];autosize=1;strokeColor=none;fillColor=none;" vertex="1" parent="1">
          <mxGeometry x="-94.17" y="500" width="30" height="30" as="geometry" />
        </mxCell>
        <mxCell id="cWBj45fKdgNhvtY2ghUl-3" value="N" style="text;html=1;align=center;verticalAlign=middle;resizable=0;points=[];autosize=1;strokeColor=none;fillColor=none;" vertex="1" parent="1">
          <mxGeometry x="426.5" y="633" width="30" height="30" as="geometry" />
        </mxCell>
        <mxCell id="cWBj45fKdgNhvtY2ghUl-5" value="1" style="text;html=1;align=center;verticalAlign=middle;resizable=0;points=[];autosize=1;strokeColor=none;fillColor=none;" vertex="1" parent="1">
          <mxGeometry x="551" y="852" width="30" height="30" as="geometry" />
        </mxCell>
        <mxCell id="cWBj45fKdgNhvtY2ghUl-6" value="1" style="text;html=1;align=center;verticalAlign=middle;resizable=0;points=[];autosize=1;strokeColor=none;fillColor=none;" vertex="1" parent="1">
          <mxGeometry x="220" y="820" width="30" height="30" as="geometry" />
        </mxCell>
        <mxCell id="cWBj45fKdgNhvtY2ghUl-7" value="1" style="text;html=1;align=center;verticalAlign=middle;resizable=0;points=[];autosize=1;strokeColor=none;fillColor=none;" vertex="1" parent="1">
          <mxGeometry x="384.08000000000004" y="633" width="30" height="30" as="geometry" />
        </mxCell>
        <mxCell id="cWBj45fKdgNhvtY2ghUl-8" value="1" style="text;html=1;align=center;verticalAlign=middle;resizable=0;points=[];autosize=1;strokeColor=none;fillColor=none;" vertex="1" parent="1">
          <mxGeometry x="386" y="565" width="30" height="30" as="geometry" />
        </mxCell>
        <mxCell id="cWBj45fKdgNhvtY2ghUl-9" value="N" style="text;html=1;align=center;verticalAlign=middle;resizable=0;points=[];autosize=1;strokeColor=none;fillColor=none;" vertex="1" parent="1">
          <mxGeometry x="385" y="356" width="30" height="30" as="geometry" />
        </mxCell>
        <mxCell id="cWBj45fKdgNhvtY2ghUl-10" value="1" style="text;html=1;align=center;verticalAlign=middle;resizable=0;points=[];autosize=1;strokeColor=none;fillColor=none;" vertex="1" parent="1">
          <mxGeometry x="-124.17" y="575" width="30" height="30" as="geometry" />
        </mxCell>
        <mxCell id="cWBj45fKdgNhvtY2ghUl-11" value="1" style="text;html=1;align=center;verticalAlign=middle;resizable=0;points=[];autosize=1;strokeColor=none;fillColor=none;" vertex="1" parent="1">
          <mxGeometry x="-282" y="774" width="30" height="30" as="geometry" />
        </mxCell>
        <mxCell id="cWBj45fKdgNhvtY2ghUl-12" value="чрез ОrderItems" style="html=1;whiteSpace=wrap;aspect=fixed;shape=isoRectangle;" vertex="1" parent="1">
          <mxGeometry x="10" y="706.35" width="122.75" height="73.65" as="geometry" />
        </mxCell>
        <mxCell id="cWBj45fKdgNhvtY2ghUl-13" value="" style="endArrow=none;html=1;rounded=0;exitX=-0.001;exitY=0.502;exitDx=0;exitDy=0;exitPerimeter=0;entryX=0.474;entryY=0.982;entryDx=0;entryDy=0;entryPerimeter=0;" edge="1" parent="1" source="cWBj45fKdgNhvtY2ghUl-12" target="UVv64VayunSS3mwNl8jP-14">
          <mxGeometry width="50" height="50" relative="1" as="geometry">
            <mxPoint x="60" y="710" as="sourcePoint" />
            <mxPoint x="110" y="660" as="targetPoint" />
            <Array as="points">
              <mxPoint x="-88" y="743" />
            </Array>
          </mxGeometry>
        </mxCell>
        <mxCell id="cWBj45fKdgNhvtY2ghUl-14" value="" style="endArrow=none;html=1;rounded=0;exitX=1.001;exitY=0.496;exitDx=0;exitDy=0;exitPerimeter=0;entryX=0.1;entryY=0.211;entryDx=0;entryDy=0;entryPerimeter=0;" edge="1" parent="1" source="cWBj45fKdgNhvtY2ghUl-12" target="cWBj45fKdgNhvtY2ghUl-7">
          <mxGeometry width="50" height="50" relative="1" as="geometry">
            <mxPoint x="60" y="650" as="sourcePoint" />
            <mxPoint x="110" y="600" as="targetPoint" />
            <Array as="points">
              <mxPoint x="230" y="743" />
              <mxPoint x="230" y="710" />
              <mxPoint x="387" y="710" />
            </Array>
          </mxGeometry>
        </mxCell>
        <mxCell id="cWBj45fKdgNhvtY2ghUl-15" value="N" style="text;html=1;align=center;verticalAlign=middle;resizable=0;points=[];autosize=1;strokeColor=none;fillColor=none;" vertex="1" parent="1">
          <mxGeometry x="-94.17" y="574" width="30" height="30" as="geometry" />
        </mxCell>
        <mxCell id="cWBj45fKdgNhvtY2ghUl-16" value="M" style="text;html=1;align=center;verticalAlign=middle;resizable=0;points=[];autosize=1;strokeColor=none;fillColor=none;" vertex="1" parent="1">
          <mxGeometry x="363" y="633" width="30" height="30" as="geometry" />
        </mxCell>
        <mxCell id="cWBj45fKdgNhvtY2ghUl-17" value="&lt;u&gt;OrderItemID&lt;/u&gt;" style="ellipse;whiteSpace=wrap;html=1;" vertex="1" parent="1">
          <mxGeometry x="331" y="199" width="75" height="50" as="geometry" />
        </mxCell>
        <mxCell id="cWBj45fKdgNhvtY2ghUl-18" value="" style="endArrow=none;html=1;rounded=0;exitX=0.5;exitY=0;exitDx=0;exitDy=0;entryX=0.5;entryY=1;entryDx=0;entryDy=0;" edge="1" parent="1" source="UVv64VayunSS3mwNl8jP-5" target="cWBj45fKdgNhvtY2ghUl-17">
          <mxGeometry width="50" height="50" relative="1" as="geometry">
            <mxPoint x="355.49" y="290" as="sourcePoint" />
            <mxPoint x="381.49" y="272" as="targetPoint" />
          </mxGeometry>
        </mxCell>
      </root>
    </mxGraphModel>
  </diagram>
</mxfile>
